<?xml version="1.0" encoding="UTF-8" standalone="no"?>
<svg
   version="1.1"
   width="718.71283"
   height="251.67834"
   viewBox="0 0 718.71282 251.67834"
   id="svg54"
   sodipodi:docname="logo-white.svg"
   inkscape:version="1.2.2 (b0a8486541, 2022-12-01)"
   xmlns:inkscape="http://www.inkscape.org/namespaces/inkscape"
   xmlns:sodipodi="http://sodipodi.sourceforge.net/DTD/sodipodi-0.dtd"
   xmlns="http://www.w3.org/2000/svg"
   xmlns:svg="http://www.w3.org/2000/svg">
  <defs
     id="defs58" />
  <sodipodi:namedview
     id="namedview56"
     pagecolor="#ffffff"
     bordercolor="#000000"
     borderopacity="0.25"
     inkscape:showpageshadow="2"
     inkscape:pageopacity="0.0"
     inkscape:pagecheckerboard="0"
     inkscape:deskcolor="#d1d1d1"
     showgrid="false"
     inkscape:zoom="0.4355"
     inkscape:cx="424.79908"
     inkscape:cy="357.06085"
     inkscape:window-width="636"
     inkscape:window-height="1036"
     inkscape:window-x="1280"
     inkscape:window-y="0"
     inkscape:window-maximized="1"
     inkscape:current-layer="svg50" />
  <g
     transform="matrix(0.7,0,0,0.7,-1.4182169,60.881745)"
     id="g52">
    <svg
       viewBox="0 0 396 83"
       data-background-color="#0c1d36"
       preserveAspectRatio="xMidYMid"
       height="209"
       width="1000"
       version="1.1"
       id="svg50">
      <g
         id="tight-bounds"
         transform="translate(0.24,0.09107961)">
        <svg
           viewBox="0 0 395.52 82.817841"
           height="82.817841"
           width="395.51999"
           version="1.1"
           id="svg45">
          <g
             id="g41">
            <svg
               viewBox="0 0 516.51549 108.15306"
               height="82.817841"
               width="395.51999"
               version="1.1"
               id="svg39">
              <g
                 id="g5">
                <rect
                   width="4.4743047"
                   height="108.15306"
                   x="104.80834"
                   y="0"
                   fill="#ffffff"
                   opacity="1"
                   stroke-width="0"
                   stroke="transparent"
                   fill-opacity="1"
                   class="rect-o$-0"
                   data-fill-palette-color="primary"
                   rx="1%"
                   id="o$-0"
                   data-palette-color="#0074d9" />
              </g>
              <g
                 transform="translate(120.99549,0.26903746)"
                 id="g28">
                <svg
                   viewBox="0 0 395.52 107.61498"
                   height="107.61498"
                   width="395.51999"
                   version="1.1"
                   id="svg26">
                  <g
                     id="textblocktransform">
                    <svg
                       viewBox="0 0 395.52 107.61498"
                       height="107.61498"
                       width="395.51999"
                       id="textblock"
                       version="1.1">
                      <g
                         id="g22">
                        <svg
                           viewBox="0 0 395.52 107.61498"
                           height="107.61498"
                           width="395.51999"
                           version="1.1"
                           id="svg20">
                          <g
                             id="g18">
                            <svg
                               width="395.51999"
                               viewBox="3.75 -34.9 283 73.4"
                               height="107.61498"
                               data-palette-color="#0074d9"
                               version="1.1"
                               id="svg16">
                              <svg
                                 version="1.1"
                                 id="svg7"
                                 width="100%"
                                 height="100%" />
                              <svg
                                 version="1.1"
                                 id="svg9"
                                 width="100%"
                                 height="100%" />
                              <g
                                 class="undefined-text-0"
                                 data-fill-palette-color="primary"
                                 id="text-0">
                                <path
                                   d="m 3.75,0 v -34.3 h 8.35 l 7.2,22 c 0.433,1.367 0.95,3.35 1.55,5.95 v 0 h 0.2 c 0.6,-2.8 1.1,-4.783 1.5,-5.95 v 0 l 7.15,-22 h 8.2 V 0 h -5.55 v -22.4 l 0.2,-6.15 H 32.2 c -0.333,1.5 -0.633,2.683 -0.9,3.55 v 0 L 23.05,0 H 18.2 l -8.15,-25 c -0.167,-0.5 -0.4,-1.35 -0.7,-2.55 v 0 l -0.25,-1 H 8.85 L 9,-22.4 V 0 Z m 42.1,0 V -34.3 H 51.4 V 0 Z M 59.3,0 v -34.3 h 5.1 L 81,-12 c 0.367,0.5 0.85,1.217 1.45,2.15 v 0 l 0.25,-0.1 -0.05,-2.5 V -34.3 H 87.9 V 0 h -5 L 66.25,-22.55 c -0.267,-0.333 -0.55,-0.733 -0.85,-1.2 -0.3,-0.467 -0.517,-0.8 -0.65,-1 v 0 l -0.25,0.05 0.05,2.55 V 0 Z m 36.55,0 v -34.3 h 5.55 V 0 Z m 13.45,0 v -34.3 h 8.35 l 7.2,22 c 0.433,1.367 0.95,3.35 1.55,5.95 v 0 h 0.2 c 0.6,-2.8 1.1,-4.783 1.5,-5.95 v 0 l 7.15,-22 h 8.2 V 0 h -5.55 v -22.4 l 0.2,-6.15 h -0.35 c -0.333,1.5 -0.633,2.683 -0.9,3.55 v 0 L 128.6,0 h -4.85 l -8.15,-25 c -0.167,-0.5 -0.4,-1.35 -0.7,-2.55 v 0 l -0.25,-1 h -0.25 l 0.15,6.15 V 0 Z m 38.2,0 13.35,-34.3 h 7 L 181.15,0 h -5.9 L 172.1,-8.35 H 156.3 L 153.2,0 Z m 10.55,-13.1 h 12.25 l -3.75,-10.05 -2.25,-6.4 h -0.25 l -0.45,1.3 c -0.567,1.733 -1.15,3.4 -1.75,5 v 0 z M 185.15,0 v -34.3 h 5.55 v 29.5 h 17.85 V 0 Z m 29.1,0 v -34.3 h 5.55 V 0 Z m 26.25,0.6 c -4.133,0 -7.533,-0.86 -10.2,-2.58 -2.667,-1.713 -4,-4.32 -4,-7.82 v 0 l 0.05,-1.05 h 5.5 c -0.067,0.467 -0.1,0.8 -0.1,1 v 0 c 0,1.867 0.783,3.29 2.35,4.27 1.567,0.987 3.683,1.48 6.35,1.48 v 0 c 2.933,0 5.15,-0.433 6.65,-1.3 1.5,-0.867 2.25,-2.117 2.25,-3.75 v 0 c 0,-1.167 -0.407,-2.127 -1.22,-2.88 -0.82,-0.747 -1.853,-1.347 -3.1,-1.8 -1.253,-0.447 -2.947,-0.953 -5.08,-1.52 v 0 c -2.7,-0.7 -4.907,-1.393 -6.62,-2.08 -1.72,-0.68 -3.18,-1.68 -4.38,-3 -1.2,-1.313 -1.8,-3.037 -1.8,-5.17 v 0 c 0,-3.033 1.25,-5.34 3.75,-6.92 2.5,-1.587 5.75,-2.38 9.75,-2.38 v 0 c 3.933,0 7.127,0.817 9.58,2.45 2.447,1.633 3.67,4.083 3.67,7.35 v 0 0.6 h -5.4 v -0.65 c 0,-1.6 -0.717,-2.843 -2.15,-3.73 -1.433,-0.88 -3.3,-1.32 -5.6,-1.32 v 0 c -2.467,0 -4.423,0.367 -5.87,1.1 -1.453,0.733 -2.18,1.8 -2.18,3.2 v 0 c 0,1.033 0.4,1.89 1.2,2.57 0.8,0.687 1.8,1.247 3,1.68 1.2,0.433 2.833,0.917 4.9,1.45 v 0 c 2.8,0.733 5.06,1.433 6.78,2.1 1.713,0.667 3.187,1.657 4.42,2.97 1.233,1.32 1.85,3.047 1.85,5.18 v 0 c 0,3.667 -1.283,6.34 -3.85,8.02 -2.567,1.687 -6.067,2.53 -10.5,2.53 z M 269.8,0 v -29.5 h -11.4 v -4.8 h 28.35 v 4.8 h -11.4 V 0 Z"
                                   fill="#ffffff"
                                   fill-rule="nonzero"
                                   stroke="none"
                                   stroke-width="1"
                                   stroke-linecap="butt"
                                   stroke-linejoin="miter"
                                   stroke-miterlimit="10"
                                   stroke-dasharray="none"
                                   stroke-dashoffset="0"
                                   font-family="none"
                                   font-weight="none"
                                   font-size="none"
                                   text-anchor="none"
                                   style="mix-blend-mode:normal"
                                   data-fill-palette-color="primary"
                                   opacity="1"
                                   id="path11" />
                                <path
                                   transform="translate(0,38.5)"
                                   d="M 3.75,0 V -34.3 H 9.3 v 18.2 L 26.75,-34.3 H 33.5 L 20.35,-20.5 33.9,0 H 27.35 L 16.6,-16.6 9.3,-10 V 0 Z M 34.5,0 47.85,-34.3 h 7 L 68.15,0 h -5.9 L 59.1,-8.35 H 43.3 L 40.2,0 Z M 45.05,-13.1 H 57.3 l -3.75,-10.05 -2.25,-6.4 h -0.25 l -0.45,1.3 c -0.567,1.733 -1.15,3.4 -1.75,5 v 0 z M 72.15,0 v -34.3 h 5.1 l 16.6,22.3 c 0.367,0.5 0.85,1.217 1.45,2.15 v 0 l 0.25,-0.1 -0.05,-2.5 V -34.3 h 5.25 V 0 h -5 L 79.1,-22.55 c -0.267,-0.333 -0.55,-0.733 -0.85,-1.2 -0.3,-0.467 -0.517,-0.8 -0.65,-1 v 0 l -0.25,0.05 0.05,2.55 V 0 Z m 36.1,0 v -34.3 h 17.5 c 1.867,0 3.523,0.35 4.97,1.05 1.453,0.7 2.59,1.69 3.41,2.97 0.813,1.287 1.22,2.763 1.22,4.43 v 0 c 0,1.9 -0.523,3.55 -1.57,4.95 -1.053,1.4 -2.43,2.367 -4.13,2.9 v 0 0.2 c 2,0.433 3.607,1.39 4.82,2.87 1.22,1.487 1.83,3.38 1.83,5.68 v 0 c 0,3.067 -0.967,5.373 -2.9,6.92 -1.933,1.553 -4.483,2.33 -7.65,2.33 v 0 z m 5.55,-19.95 h 10.7 c 1.567,0 2.827,-0.443 3.78,-1.33 0.947,-0.88 1.42,-2.037 1.42,-3.47 v 0 c 0,-1.6 -0.433,-2.8 -1.3,-3.6 -0.867,-0.8 -2.05,-1.2 -3.55,-1.2 v 0 H 113.8 Z m 0,15.2 h 11.55 c 1.667,0 2.967,-0.417 3.9,-1.25 0.933,-0.833 1.4,-2.133 1.4,-3.9 v 0 c 0,-1.733 -0.483,-3.05 -1.45,-3.95 -0.967,-0.9 -2.383,-1.35 -4.25,-1.35 v 0 H 113.8 Z M 139,0 152.35,-34.3 h 7 L 172.65,0 h -5.9 L 163.6,-8.35 H 147.8 L 144.7,0 Z m 10.55,-13.1 h 12.25 l -3.75,-10.05 -2.25,-6.4 h -0.25 l -0.45,1.3 c -0.567,1.733 -1.15,3.4 -1.75,5 v 0 z M 176.65,0 v -34.3 h 5.1 l 16.6,22.3 c 0.367,0.5 0.85,1.217 1.45,2.15 v 0 l 0.25,-0.1 -0.05,-2.5 V -34.3 h 5.25 V 0 h -5 L 183.6,-22.55 c -0.267,-0.333 -0.55,-0.733 -0.85,-1.2 -0.3,-0.467 -0.517,-0.8 -0.65,-1 v 0 l -0.25,0.05 0.05,2.55 V 0 Z"
                                   fill="#ffffff"
                                   fill-rule="nonzero"
                                   stroke="none"
                                   stroke-width="1"
                                   stroke-linecap="butt"
                                   stroke-linejoin="miter"
                                   stroke-miterlimit="10"
                                   stroke-dasharray="none"
                                   stroke-dashoffset="0"
                                   font-family="none"
                                   font-weight="none"
                                   font-size="none"
                                   text-anchor="none"
                                   style="mix-blend-mode:normal"
                                   data-fill-palette-color="primary"
                                   opacity="1"
                                   id="path13" />
                              </g>
                            </svg>
                          </g>
                        </svg>
                      </g>
                    </svg>
                  </g>
                </svg>
              </g>
              <g
                 transform="translate(0,0.26903746)"
                 id="g37">
                <svg
                   viewBox="0 0 93.095501 107.61498"
                   height="107.61498"
                   width="93.095497"
                   version="1.1"
                   id="svg35">
                  <g
                     id="g33">
                    <svg
                       version="1.1"
                       x="0"
                       y="0"
                       viewBox="17.3 12.2 65.4 75.6"
                       xml:space="preserve"
                       height="107.61498"
                       width="93.095497"
                       class="icon-icon-0"
                       data-fill-palette-color="accent"
                       id="icon-0"><path
                         d="M 50,12.2 17.3,31.1 V 68.9 L 50,87.8 82.7,68.9 V 31.1 Z M 32.1,37.4 50,16 67,37.4 Z m 35.2,2 -17.3,31 -18.2,-31 z M 48.1,71 20.4,66.5 30.2,40.6 Z M 68.9,40.7 79.6,66.6 51.9,71.1 Z M 69.2,37.1 52.6,16 l 27,15.6 z m -39.4,0 -9.4,-5.5 26.8,-15.5 z m -1,1.7 -9.5,25 V 33.3 Z M 49,73.2 V 84.9 L 20.9,68.7 Z m 2,0 L 79.1,68.7 51,84.9 Z M 70.3,38.8 80.8,33.2 v 30.9 z"
                         fill="#ffffff"
                         data-fill-palette-color="accent"
                         id="path30" /></svg>
                  </g>
                </svg>
              </g>
            </svg>
          </g>
          <defs
             id="defs43" />
        </svg>
        <rect
           width="395.51999"
           height="82.817841"
           fill="none"
           stroke="none"
           visibility="hidden"
           id="rect47"
           x="0"
           y="0" />
      </g>
    </svg>
  </g>
</svg>
