<?xml version="1.0" encoding="UTF-8" standalone="no"?>
<svg
   version="1.1"
   width="125.65507"
   height="145.25264"
   viewBox="0 0 125.65507 145.25263"
   id="svg54"
   sodipodi:docname="logo-only.svg"
   inkscape:version="1.2.2 (b0a8486541, 2022-12-01)"
   xmlns:inkscape="http://www.inkscape.org/namespaces/inkscape"
   xmlns:sodipodi="http://sodipodi.sourceforge.net/DTD/sodipodi-0.dtd"
   xmlns="http://www.w3.org/2000/svg"
   xmlns:svg="http://www.w3.org/2000/svg">
  <defs
     id="defs58" />
  <sodipodi:namedview
     id="namedview56"
     pagecolor="#ffffff"
     bordercolor="#000000"
     borderopacity="0.25"
     inkscape:showpageshadow="2"
     inkscape:pageopacity="0.0"
     inkscape:pagecheckerboard="0"
     inkscape:deskcolor="#d1d1d1"
     showgrid="false"
     inkscape:zoom="0.61589001"
     inkscape:cx="257.35115"
     inkscape:cy="215.13582"
     inkscape:window-width="1916"
     inkscape:window-height="976"
     inkscape:window-x="0"
     inkscape:window-y="80"
     inkscape:window-maximized="1"
     inkscape:current-layer="g33" />
  <g
     transform="matrix(0.7,0,0,0.7,-1.4182169,-0.52367316)"
     id="g52">
    <svg
       viewBox="0 0 396 83"
       data-background-color="#0c1d36"
       preserveAspectRatio="xMidYMid"
       height="209"
       width="1000"
       version="1.1"
       id="svg50">
      <g
         id="tight-bounds"
         transform="translate(0.24,0.09107961)">
        <svg
           viewBox="0 0 395.52 82.817841"
           height="82.817841"
           width="395.51999"
           version="1.1"
           id="svg45">
          <g
             id="g41">
            <svg
               viewBox="0 0 516.51549 108.15306"
               height="82.817841"
               width="395.51999"
               version="1.1"
               id="svg39">
              <g
                 transform="translate(0,0.26903746)"
                 id="g37">
                <svg
                   viewBox="0 0 93.095501 107.61498"
                   height="107.61498"
                   width="93.095497"
                   version="1.1"
                   id="svg35">
                  <g
                     id="g33">
                    <svg
                       version="1.1"
                       x="0"
                       y="0"
                       viewBox="17.3 12.2 65.4 75.6"
                       xml:space="preserve"
                       height="107.61498"
                       width="93.095497"
                       class="icon-icon-0"
                       data-fill-palette-color="accent"
                       id="icon-0"
                       style="fill:#000000"><path
                         d="M 50,12.2 17.3,31.1 V 68.9 L 50,87.8 82.7,68.9 V 31.1 Z M 32.1,37.4 50,16 67,37.4 Z m 35.2,2 -17.3,31 -18.2,-31 z M 48.1,71 20.4,66.5 30.2,40.6 Z M 68.9,40.7 79.6,66.6 51.9,71.1 Z M 69.2,37.1 52.6,16 l 27,15.6 z m -39.4,0 -9.4,-5.5 26.8,-15.5 z m -1,1.7 -9.5,25 V 33.3 Z M 49,73.2 V 84.9 L 20.9,68.7 Z m 2,0 L 79.1,68.7 51,84.9 Z M 70.3,38.8 80.8,33.2 v 30.9 z"
                         fill="#f9f9f9"
                         data-fill-palette-color="accent"
                         id="path30"
                         style="fill:#000000" /></svg>
                  </g>
                </svg>
              </g>
            </svg>
          </g>
          <defs
             id="defs43" />
        </svg>
        <rect
           width="395.51999"
           height="82.817841"
           fill="none"
           stroke="none"
           visibility="hidden"
           id="rect47"
           x="0"
           y="0" />
      </g>
    </svg>
  </g>
</svg>
